<svg width="37" height="37" viewBox="0 0 37 37" fill="none" xmlns="http://www.w3.org/2000/svg">
<path d="M28.2077 16.5007L18.0423 26.666C17.7372 26.9711 17.3759 27.1237 16.9583 27.1237C16.5408 27.1237 16.1795 26.9711 15.8743 26.666L8.79232 19.584C8.4872 19.2789 8.33464 18.9175 8.33464 18.5C8.33464 18.0825 8.4872 17.7211 8.79232 17.416L11.2493 14.959C11.5545 14.6539 11.9158 14.5013 12.3333 14.5013C12.7509 14.5013 13.1122 14.6539 13.4173 14.959L16.9583 18.5L23.5827 11.8757C23.8878 11.5705 24.2491 11.418 24.6667 11.418C25.0842 11.418 25.4455 11.5705 25.7507 11.8757L28.2077 14.3327C28.5128 14.6378 28.6654 14.9991 28.6654 15.4167C28.6654 15.8342 28.5128 16.1955 28.2077 16.5007ZM31.6042 18.5C31.6042 16.1233 31.018 13.9312 29.8457 11.9238C28.6734 9.91645 27.0835 8.32661 25.0762 7.1543C23.0688 5.98199 20.8767 5.39583 18.5 5.39583C16.1233 5.39583 13.9312 5.98199 11.9238 7.1543C9.91645 8.32661 8.32661 9.91645 7.1543 11.9238C5.98199 13.9312 5.39583 16.1233 5.39583 18.5C5.39583 20.8767 5.98199 23.0688 7.1543 25.0762C8.32661 27.0835 9.91645 28.6734 11.9238 29.8457C13.9312 31.018 16.1233 31.6042 18.5 31.6042C20.8767 31.6042 23.0688 31.018 25.0762 29.8457C27.0835 28.6734 28.6734 27.0835 29.8457 25.0762C31.018 23.0688 31.6042 20.8767 31.6042 18.5ZM37 18.5C37 21.8563 36.173 24.9517 34.5189 27.7861C32.8648 30.6206 30.6206 32.8648 27.7861 34.5189C24.9517 36.173 21.8563 37 18.5 37C15.1437 37 12.0483 36.173 9.21387 34.5189C6.37945 32.8648 4.1352 30.6206 2.48112 27.7861C0.82704 24.9517 0 21.8563 0 18.5C0 15.1437 0.82704 12.0483 2.48112 9.21387C4.1352 6.37945 6.37945 4.1352 9.21387 2.48112C12.0483 0.82704 15.1437 0 18.5 0C21.8563 0 24.9517 0.82704 27.7861 2.48112C30.6206 4.1352 32.8648 6.37945 34.5189 9.21387C36.173 12.0483 37 15.1437 37 18.5Z" fill="white"/>
</svg>
