<svg width="17" height="20" viewBox="0 0 17 20" fill="none" xmlns="http://www.w3.org/2000/svg">
<path d="M6.15544 7.24184C4.17165 9.57813 4.19888 13.3238 6.14349 15.6242C6.14714 15.6289 6.15146 15.634 6.15544 15.6387L8.38669 18.2637C10.3546 20.5789 13.5564 20.5786 15.524 18.2637C17.492 15.9489 17.492 12.1817 15.524 9.86684L14.292 8.41739C13.9653 8.03301 13.4026 8.28848 13.3858 8.83168C13.3642 9.52395 13.2587 10.2195 13.064 10.8911C12.9981 11.1185 13.0452 11.3701 13.1896 11.54L13.6242 12.0512C14.5547 13.146 14.5839 14.9285 13.6625 16.034C12.732 17.1504 11.2026 17.157 10.265 16.0539L8.03374 13.4293C7.09771 12.3281 7.10163 10.5482 8.03374 9.4516C8.15663 9.30731 8.28041 9.1952 8.3771 9.11688C8.4455 9.06162 8.50197 8.98832 8.54202 8.90282C8.58207 8.81733 8.60458 8.722 8.60776 8.62446C8.62091 8.21168 8.4966 7.78633 8.21935 7.46016L7.52029 6.6377C7.33698 6.42204 7.0494 6.39555 6.83684 6.57009C6.5934 6.77007 6.36539 6.99485 6.15544 7.24184V7.24184ZM1.47596 1.73631C3.44361 -0.578612 6.64535 -0.578925 8.6133 1.73631L10.8446 4.3613C10.8485 4.36599 10.8529 4.37107 10.8565 4.37575C12.8011 6.67622 12.8283 10.4219 10.8446 12.7582C10.6346 13.0051 10.4066 13.2299 10.1632 13.4299C9.95063 13.6044 9.66302 13.5779 9.47974 13.3623L8.78068 12.5398C8.50343 12.2136 8.37912 11.7883 8.39227 11.3755C8.39545 11.278 8.41796 11.1826 8.45801 11.0971C8.49805 11.0116 8.55453 10.9383 8.62293 10.8831C8.71962 10.8048 8.8434 10.6927 8.96629 10.5484C9.8984 9.45176 9.90232 7.67184 8.96629 6.57063L6.73504 3.94603C5.79741 2.84294 4.26804 2.84958 3.33753 3.96595C2.41614 5.07142 2.44529 6.85399 3.37588 7.94875L3.8104 8.45996C3.95484 8.62989 4.00195 8.88145 3.93601 9.10887C3.74131 9.78051 3.63579 10.476 3.61427 11.1683C3.59737 11.7115 3.03475 11.9669 2.70803 11.5826L1.47599 10.1331C-0.491991 7.81832 -0.491991 4.05114 1.47596 1.73631V1.73631Z" fill="#CCCCCC"/>
</svg>
