<svg width="25" height="18" viewBox="0 0 25 18" fill="none" xmlns="http://www.w3.org/2000/svg">
<path d="M24.5264 5.94375C24.7168 5.79844 25 5.93437 25 6.16406V15.75C25 16.9922 23.9502 18 22.6562 18H2.34375C1.0498 18 0 16.9922 0 15.75V6.16875C0 5.93438 0.27832 5.80312 0.473633 5.94844C1.56738 6.76406 3.01758 7.8 7.99805 11.2734C9.02832 11.9953 10.7666 13.5141 12.5 13.5047C14.2432 13.5188 16.0156 11.9672 17.0068 11.2734C21.9873 7.8 23.4326 6.75938 24.5264 5.94375ZM12.5 12C13.6328 12.0188 15.2637 10.6313 16.084 10.0594C22.5635 5.54531 23.0566 5.15156 24.5508 4.02656C24.834 3.81562 25 3.4875 25 3.14062V2.25C25 1.00781 23.9502 0 22.6562 0H2.34375C1.0498 0 0 1.00781 0 2.25V3.14062C0 3.4875 0.166016 3.81094 0.449219 4.02656C1.94336 5.14687 2.43652 5.54531 8.91602 10.0594C9.73633 10.6313 11.3672 12.0188 12.5 12Z" fill="#137684"/>
</svg>
