<svg width="16" height="20" viewBox="0 0 16 20" fill="none" xmlns="http://www.w3.org/2000/svg">
<g clip-path="url(#clip0)">
<path d="M6.97922 19.5965C1.30352 11.3684 0.25 10.5239 0.25 7.5C0.25 3.35785 3.60785 0 7.75 0C11.8921 0 15.25 3.35785 15.25 7.5C15.25 10.5239 14.1965 11.3684 8.52078 19.5965C8.14832 20.1345 7.35164 20.1345 6.97922 19.5965ZM7.75 10.625C9.4759 10.625 10.875 9.2259 10.875 7.5C10.875 5.7741 9.4759 4.375 7.75 4.375C6.0241 4.375 4.625 5.7741 4.625 7.5C4.625 9.2259 6.0241 10.625 7.75 10.625Z" fill="#CCCCCC"/>
</g>
<defs>
<clipPath id="clip0">
<rect width="15" height="20" fill="white" transform="translate(0.25)"/>
</clipPath>
</defs>
</svg>
