<svg width="13" height="20" viewBox="0 0 13 20" fill="none" xmlns="http://www.w3.org/2000/svg">
<path d="M11.05 0H1.95C0.873437 0 0 0.839844 0 1.875V18.125C0 19.1602 0.873437 20 1.95 20H11.05C12.1266 20 13 19.1602 13 18.125V1.875C13 0.839844 12.1266 0 11.05 0ZM6.5 18.75C5.78094 18.75 5.2 18.1914 5.2 17.5C5.2 16.8086 5.78094 16.25 6.5 16.25C7.21906 16.25 7.8 16.8086 7.8 17.5C7.8 18.1914 7.21906 18.75 6.5 18.75ZM11.05 14.5312C11.05 14.7891 10.8306 15 10.5625 15H2.4375C2.16937 15 1.95 14.7891 1.95 14.5312V2.34375C1.95 2.08594 2.16937 1.875 2.4375 1.875H10.5625C10.8306 1.875 11.05 2.08594 11.05 2.34375V14.5312Z" fill="#CCCCCC"/>
</svg>
