<svg width="24" height="24" fill="none" xmlns="http://www.w3.org/2000/svg"><path d="M23.555 23.554a1.455 1.455 0 01-1.067.446c-.414 0-.77-.149-1.066-.446l-4.64-4.645c-1.876 1.392-3.97 2.088-6.282 2.088-1.422 0-2.781-.277-4.078-.833-1.297-.555-2.414-1.302-3.352-2.24A10.594 10.594 0 01.832 14.58 10.228 10.228 0 010 10.499c0-1.432.277-2.796.832-4.094.555-1.298 1.3-2.413 2.238-3.343.938-.931 2.055-1.674 3.352-2.23A10.256 10.256 0 0110.5 0c1.422 0 2.781.278 4.078.833 1.297.555 2.414 1.298 3.352 2.229.937.93 1.683 2.045 2.238 3.343.555 1.298.832 2.659.832 4.082 0 2.33-.695 4.426-2.086 6.287l4.64 4.645c.298.297.446.653.446 1.068 0 .414-.148.77-.445 1.067zM10.5 3.003c-1.36 0-2.613.332-3.762.997a7.388 7.388 0 00-2.73 2.733A7.37 7.37 0 003 10.5a7.37 7.37 0 001.008 3.765 7.388 7.388 0 002.73 2.733 7.378 7.378 0 003.762.997c1.36 0 2.613-.332 3.762-.997a7.388 7.388 0 002.73-2.733A7.37 7.37 0 0018 10.499a7.37 7.37 0 00-1.008-3.766A7.388 7.388 0 0014.262 4a7.377 7.377 0 00-3.762-.997z" fill="#1BA5B8"/></svg>