<svg width="37" height="37" fill="none" xmlns="http://www.w3.org/2000/svg"><path d="M28.208 16.5L18.042 26.667a1.482 1.482 0 01-1.084.458c-.417 0-.778-.153-1.084-.458l-7.082-7.082a1.482 1.482 0 01-.457-1.084c0-.418.152-.779.457-1.084l2.457-2.457a1.482 1.482 0 011.084-.458c.418 0 .78.153 1.084.458l3.541 3.541 6.625-6.624a1.481 1.481 0 011.084-.458c.417 0 .778.152 1.084.458l2.457 2.457c.305.305.457.666.457 1.084 0 .417-.152.778-.457 1.084zm3.396 2c0-2.377-.586-4.569-1.758-6.576a13.064 13.064 0 00-4.77-4.77c-2.007-1.172-4.2-1.758-6.576-1.758-2.377 0-4.569.586-6.576 1.758a13.063 13.063 0 00-4.77 4.77c-1.172 2.007-1.758 4.2-1.758 6.576 0 2.377.586 4.569 1.758 6.576a13.064 13.064 0 004.77 4.77c2.007 1.172 4.2 1.758 6.576 1.758 2.377 0 4.569-.586 6.576-1.758a13.064 13.064 0 004.77-4.77c1.172-2.007 1.758-4.2 1.758-6.576zm5.396 0c0 3.356-.827 6.452-2.481 9.286a18.416 18.416 0 01-6.733 6.733C24.952 36.173 21.856 37 18.5 37s-6.452-.827-9.286-2.481a18.417 18.417 0 01-6.733-6.733C.827 24.952 0 21.856 0 18.5s.827-6.452 2.481-9.286A18.417 18.417 0 019.214 2.48C12.048.827 15.144 0 18.5 0s6.452.827 9.286 2.481a18.417 18.417 0 016.733 6.733C36.173 12.048 37 15.144 37 18.5z" fill="#fff"/></svg>