<svg width="17" height="20" fill="none" xmlns="http://www.w3.org/2000/svg"><path d="M6.155 7.242c-1.983 2.336-1.956 6.082-.012 8.382l.012.015 2.232 2.625c1.968 2.315 5.17 2.315 7.137 0 1.968-2.315 1.968-6.082 0-8.397l-1.232-1.45c-.327-.384-.89-.129-.906.415a8.346 8.346 0 01-.322 2.06.71.71 0 00.126.648l.434.511c.93 1.095.96 2.877.038 3.983-.93 1.116-2.46 1.123-3.397.02l-2.231-2.625c-.936-1.1-.932-2.88 0-3.977.123-.145.246-.257.343-.335a.602.602 0 00.165-.214.713.713 0 00.066-.279 1.715 1.715 0 00-.389-1.164l-.699-.822a.475.475 0 00-.683-.068 5.34 5.34 0 00-.682.672zM1.476 1.736c1.968-2.315 5.17-2.315 7.137 0l2.232 2.625.011.015c1.945 2.3 1.972 6.046-.011 8.382a5.34 5.34 0 01-.682.672.475.475 0 01-.683-.068l-.7-.822a1.715 1.715 0 01-.388-1.164.713.713 0 01.066-.279.602.602 0 01.165-.214c.097-.078.22-.19.343-.335.932-1.096.936-2.876 0-3.977L6.735 3.946c-.938-1.103-2.467-1.096-3.397.02-.922 1.105-.893 2.888.038 3.983l.434.511a.71.71 0 01.126.649 8.342 8.342 0 00-.322 2.06c-.017.542-.58.798-.906.414l-1.232-1.45c-1.968-2.315-1.968-6.082 0-8.397z" fill="#CCC"/></svg>