<svg width="25" height="18" fill="none" xmlns="http://www.w3.org/2000/svg"><path d="M24.526 5.944c.19-.146.474-.01.474.22v9.586c0 1.242-1.05 2.25-2.344 2.25H2.344C1.05 18 0 16.992 0 15.75V6.169c0-.235.278-.366.474-.22 1.093.815 2.544 1.851 7.524 5.324 1.03.722 2.769 2.241 4.502 2.232 1.743.014 3.516-1.538 4.507-2.232 4.98-3.473 6.426-4.514 7.52-5.33zM12.5 12c1.133.019 2.764-1.369 3.584-1.94 6.48-4.515 6.973-4.908 8.467-6.033.283-.211.449-.54.449-.886V2.25C25 1.008 23.95 0 22.656 0H2.344C1.05 0 0 1.008 0 2.25v.89c0 .347.166.67.45.887 1.493 1.12 1.987 1.518 8.466 6.032.82.572 2.451 1.96 3.584 1.941z" fill="#137684"/></svg>