<svg width="24" height="24" viewBox="0 0 24 24" fill="none" xmlns="http://www.w3.org/2000/svg">
<path d="M23.5547 23.5543C23.2578 23.8514 22.9023 24 22.4883 24C22.0742 24 21.7188 23.8514 21.4219 23.5543L16.7812 18.9091C14.9062 20.3011 12.8125 20.9971 10.5 20.9971C9.07812 20.9971 7.71875 20.7195 6.42188 20.1642C5.125 19.609 4.00781 18.8622 3.07031 17.9238C2.13281 16.9853 1.38672 15.871 0.832031 14.5806C0.277344 13.2903 0 11.9296 0 10.4985C0 9.06745 0.277344 7.70283 0.832031 6.40469C1.38672 5.10655 2.13281 3.99218 3.07031 3.06158C4.00781 2.13099 5.125 1.38807 6.42188 0.832845C7.71875 0.277615 9.07812 0 10.5 0C11.9219 0 13.2813 0.277615 14.5781 0.832845C15.875 1.38807 16.9922 2.13099 17.9297 3.06158C18.8672 3.99218 19.6133 5.10655 20.168 6.40469C20.7227 7.70283 21 9.06354 21 10.4868C21 12.8172 20.3047 14.913 18.9141 16.7742L23.5547 21.4194C23.8516 21.7165 24 22.0723 24 22.4868C24 22.9013 23.8516 23.2571 23.5547 23.5543ZM10.5 3.00293C9.14062 3.00293 7.88672 3.33529 6.73828 4C5.58984 4.66471 4.67969 5.57576 4.00781 6.73314C3.33594 7.89052 3 9.14565 3 10.4985C3 11.8514 3.33594 13.1065 4.00781 14.2639C4.67969 15.4213 5.58984 16.3324 6.73828 16.9971C7.88672 17.6618 9.14062 17.9941 10.5 17.9941C11.8594 17.9941 13.1133 17.6618 14.2617 16.9971C15.4102 16.3324 16.3203 15.4213 16.9922 14.2639C17.6641 13.1065 18 11.8514 18 10.4985C18 9.14565 17.6641 7.89052 16.9922 6.73314C16.3203 5.57576 15.4102 4.66471 14.2617 4C13.1133 3.33529 11.8594 3.00293 10.5 3.00293Z" fill="#1BA5B8"/>
</svg>
